# xmcd CD database file
#
# Track frame offsets:
#	150
#	22780
#	43562
#	71882
#	92542
#	113800
#	132153
#	153753
#	177008
#	192428
#	216393
#	235578
#	253208
#	283946
#	306648
#
# Disc length: 4345 seconds
#
# Revision: 0
# Processed by: cddbd v1.5.1PL2 Copyright (c) Steve Scherf et al.
# Submitted via: CDex 1.51
#
DISCID=d410f70f
DTITLE=Chris Rea - Best Ballads
DYEAR=2002
DGENRE=Blues
TTITLE0=King Of the Beach
TTITLE1=The Road to hell
TTITLE2=Lies become the truth
TTITLE3=josefine
TTITLE4=sweet summer day
TTITLE5=Fool
TTITLE6=The Blue Cafe
TTITLE7=All Summer Long
TTITLE8=I can Hear You Heart Beat
TTITLE9=God's Great Banana Skin
TTITLE10=Let's Dance
TTITLE11=Julia
TTITLE12=On the Beach
TTITLE13=Looking For The Summer
TTITLE14=The Bones Of Angels
EXTD=YEAR: 2002
EXTT0=
EXTT1=
EXTT2=
EXTT3=
EXTT4=
EXTT5=
EXTT6=
EXTT7=
EXTT8=
EXTT9=
EXTT10=
EXTT11=
EXTT12=
EXTT13=
EXTT14=
PLAYORDER=
